<?xml version="1.0" encoding="UTF-8" standalone="no"?>
<svg
   xmlns:dc="http://purl.org/dc/elements/1.1/"
   xmlns:cc="http://creativecommons.org/ns#"
   xmlns:rdf="http://www.w3.org/1999/02/22-rdf-syntax-ns#"
   xmlns:svg="http://www.w3.org/2000/svg"
   xmlns="http://www.w3.org/2000/svg"
   id="svg8"
   version="1.1"
   viewBox="0 0 210 297"
   height="297mm"
   width="210mm">
  <defs
     id="defs2" />
  <metadata
     id="metadata5">
    <rdf:RDF>
      <cc:Work
         rdf:about="">
        <dc:format>image/svg+xml</dc:format>
        <dc:type
           rdf:resource="http://purl.org/dc/dcmitype/StillImage" />
        <dc:title></dc:title>
      </cc:Work>
    </rdf:RDF>
  </metadata>
  <g
     id="layer1">
    <rect
       y="9.7629757"
       x="12.846021"
       height="95.574387"
       width="71.937721"
       id="rect4518"
       style="fill:#ffff00;fill-opacity:1;stroke:none;stroke-width:0.5;stroke-linecap:round;stroke-linejoin:round;stroke-miterlimit:4;stroke-dasharray:none;stroke-dashoffset:0;stroke-opacity:1" />
    <ellipse
       ry="84.526817"
       rx="74.50692"
       cy="150.81229"
       cx="104.82353"
       id="path4520"
       style="fill:#00ff00;fill-opacity:1;stroke:none;stroke-width:0.5;stroke-linecap:round;stroke-linejoin:round;stroke-miterlimit:4;stroke-dasharray:none;stroke-dashoffset:0;stroke-opacity:1" />
    <g
       style="fill:#00ff00;fill-opacity:1;stroke:none;stroke-width:1.88976383;stroke-linecap:round;stroke-linejoin:round;stroke-miterlimit:4;stroke-dasharray:none;stroke-dashoffset:0;stroke-opacity:1"
       id="g4524">
      <path
         points="61.528381,205.6688 84.377925,200.14183 84.377925,183.95501 61.528381,187.8185 "
         d="m 61.528381,187.8185 v 17.8503 l 22.849544,-5.52697 v -16.18682 z"
         style="fill:#353564;fill-rule:evenodd;stroke:none;stroke-width:1.99748361;stroke-linejoin:round"
         id="path4526" />
      <path
         points="144.59588,283.33394 175.69399,257.06 84.377925,200.14183 61.528381,205.6688 "
         d="M 61.528381,205.6688 144.59588,283.33394 175.69399,257.06 84.377925,200.14183 Z"
         style="fill:#afafde;fill-rule:evenodd;stroke:none;stroke-width:1.99748361;stroke-linejoin:round"
         id="path4534" />
      <path
         points="175.69399,223.74214 175.69399,257.06 84.377925,200.14183 84.377925,183.95501 "
         d="m 84.377925,183.95501 91.316065,39.78713 V 257.06 L 84.377925,200.14183 Z"
         style="fill:#e9e9ff;fill-rule:evenodd;stroke:none;stroke-width:1.99748361;stroke-linejoin:round"
         id="path4536" />
      <path
         points="144.59588,242.10824 175.69399,223.74214 84.377925,183.95501 61.528381,187.8185 "
         d="m 61.528381,187.8185 83.067499,54.28974 31.09811,-18.3661 -91.316065,-39.78713 z"
         style="fill:#4d4d9f;fill-rule:evenodd;stroke:none;stroke-width:1.99748361;stroke-linejoin:round"
         id="path4528" />
      <path
         points="144.59588,283.33394 175.69399,257.06 175.69399,223.74214 144.59588,242.10824 "
         d="m 144.59588,242.10824 v 41.2257 L 175.69399,257.06 v -33.31786 z"
         style="fill:#d7d7ff;fill-rule:evenodd;stroke:none;stroke-width:1.99748361;stroke-linejoin:round"
         id="path4532" />
      <path
         points="144.59588,242.10824 144.59588,283.33394 61.528381,205.6688 61.528381,187.8185 "
         d="m 61.528381,187.8185 83.067499,54.28974 v 41.2257 L 61.528381,205.6688 Z"
         style="fill:#8686bf;fill-rule:evenodd;stroke:none;stroke-width:1.99748361;stroke-linejoin:round"
         id="path4530" />
    </g>
  </g>
</svg>
